<?xml version="1.0" encoding="UTF-8"?>
<!-- Generator: visioncortex VTracer 0.6.2 -->
<svg version="1.1" xmlns="http://www.w3.org/2000/svg" width="1280" height="720">
<path d="M0 0 C1.262463 0.00303635 1.262463 0.00303635 2.5504303 0.00613403 C3.83966148 0.00469894 3.83966148 0.00469894 5.15493774 0.00323486 C6.97662936 0.00255296 8.7983234 0.00440792 10.62001038 0.00857544 C13.41392975 0.01391708 16.20768788 0.00863415 19.00160217 0.00222778 C20.76787857 0.00288869 22.53415487 0.00417012 24.3004303 0.00613403 C25.14004807 0.0041098 25.97966583 0.00208557 26.84472656 0 C32.7619271 0.02399181 32.7619271 0.02399181 34.99183655 1.13894653 C35.32183655 24.23894653 35.65183655 47.33894653 35.99183655 71.13894653 C40.01454666 67.14239537 40.01454666 67.14239537 43.78871155 62.97488403 C44.26759827 62.41607544 44.74648499 61.85726685 45.23988342 61.28152466 C45.73552795 60.69822388 46.23117249 60.1149231 46.74183655 59.51394653 C47.26841858 58.89713013 47.79500061 58.28031372 48.33753967 57.64480591 C52.17297266 53.13828866 55.92476182 48.56808906 59.65589905 43.97488403 C63.35076326 39.48914587 67.15144476 35.0953982 70.9410553 30.68972778 C78.11593355 22.34753537 85.20582232 13.94367739 92.11683655 5.38113403 C92.73558655 4.64121216 93.35433655 3.90129028 93.99183655 3.13894653 C94.64980225 2.33810638 94.64980225 2.33810638 95.32106018 1.52108765 C97.51726598 -0.29571225 98.77195697 -0.23008032 101.59925842 -0.21749878 C102.5303241 -0.22049988 103.46138977 -0.22350098 104.42066956 -0.22659302 C105.92542847 -0.20807281 105.92542847 -0.20807281 107.46058655 -0.18917847 C109.00836792 -0.18636871 109.00836792 -0.18636871 110.5874176 -0.1835022 C112.76962005 -0.17677795 114.95181037 -0.16285614 117.13392639 -0.14230347 C120.47860385 -0.11117662 123.82280992 -0.10133541 127.1676178 -0.09542847 C129.28611314 -0.08625732 131.40460368 -0.07588119 133.52308655 -0.06417847 C134.52625916 -0.05992859 135.52943176 -0.05567871 136.56300354 -0.05130005 C137.95960205 -0.03688873 137.95960205 -0.03688873 139.38441467 -0.02218628 C140.61327393 -0.01194427 140.61327393 -0.01194427 141.86695862 -0.00149536 C143.99183655 0.13894653 143.99183655 0.13894653 146.99183655 1.13894653 C145.70259674 3.9271789 144.30564124 6.12891256 142.2691803 8.42410278 C141.73550842 9.03125122 141.20183655 9.63839966 140.6519928 10.26394653 C139.79927795 11.22300903 139.79927795 11.22300903 138.92933655 12.20144653 C137.73933194 13.55585967 136.55053398 14.91133392 135.3629303 16.26785278 C134.78269104 16.93059204 134.20245178 17.5933313 133.60462952 18.27615356 C131.51521183 20.68945314 129.4972233 23.15555326 127.49183655 25.63894653 C122.36321524 31.96768398 116.99908984 38.08600488 111.65150452 44.22927856 C104.77123416 52.14594151 97.96671745 60.11115247 91.36683655 68.26394653 C89.53789796 70.47792482 87.68706055 72.65886595 85.80433655 74.82644653 C85.25584045 75.45873169 84.70734436 76.09101685 84.14222717 76.74246216 C83.06159079 77.98423486 81.97709134 79.22265882 80.88832092 80.45730591 C78.67305178 83.00355891 77.07041917 84.90319866 75.99183655 88.13894653 C77.0263092 89.24689575 77.0263092 89.24689575 78.0816803 90.37722778 C82.64141781 95.28991398 87.12049415 100.20980247 91.30433655 105.45144653 C95.55864398 110.74450767 100.15881855 115.64618891 104.82337952 120.57376099 C109.13508639 125.15311932 113.12506865 129.87945819 117.0504303 134.79519653 C119.27705453 137.48327407 121.69144708 139.86603039 124.1988678 142.28738403 C127.17431534 145.36006842 129.76367342 148.74544633 132.43714905 152.08035278 C135.8567642 156.17447919 139.49105557 160.04934575 143.18202209 163.89920044 C146.99183655 167.92772761 146.99183655 167.92772761 146.99183655 170.13894653 C147.98183655 170.13894653 148.97183655 170.13894653 149.99183655 170.13894653 C157.31194225 153.3698928 164.17777212 136.42656084 170.99040604 119.44724655 C172.48135733 115.73309701 173.97531112 112.02015576 175.46913147 108.30715942 C177.57097798 103.08240632 179.67229044 97.85743946 181.77263165 92.63208103 C189.13614116 74.31315718 196.52732904 56.00549061 203.94960022 37.71029663 C205.00638729 35.10304771 206.0608878 32.49488363 207.11488342 29.88650513 C208.78032102 25.76627169 210.45261956 21.6488931 212.13059998 17.53375244 C212.73891711 16.03899532 213.34495449 14.54330806 213.9485321 13.04663086 C214.76001852 11.03568869 215.57979571 9.02834079 216.4019928 7.02175903 C216.85711243 5.90172485 217.31223206 4.78169067 217.78114319 3.62771606 C218.99183655 1.13894653 218.99183655 1.13894653 220.99183655 0.13894653 C223.65547353 0.01575962 226.29196689 -0.04942742 228.9566803 -0.06417847 C230.14034935 -0.07272858 230.14034935 -0.07272858 231.34793091 -0.08145142 C233.01820026 -0.09090271 234.68848826 -0.09743592 236.35877991 -0.10128784 C238.91583167 -0.11100216 241.47208259 -0.14202678 244.02894592 -0.17355347 C245.65068593 -0.18008269 247.2724317 -0.18533348 248.8941803 -0.18917847 C249.65987839 -0.20152527 250.42557648 -0.21387207 251.21447754 -0.22659302 C256.5275507 -0.20426304 256.5275507 -0.20426304 258.56236267 1.2999115 C260.42504014 3.69626807 261.37237238 6.09106393 262.47694397 8.91995239 C262.94514053 10.10609634 263.4133371 11.2922403 263.89572144 12.514328 C264.40043474 13.81497484 264.90512882 15.11562915 265.4098053 16.41629028 C265.9418116 17.76974274 266.47472031 19.12284079 267.00848389 20.4756012 C268.12009098 23.29384807 269.22850551 26.11332008 270.33503723 28.93356323 C272.63641572 34.78779231 274.99012756 40.6207723 277.34667206 46.45296288 C278.10957662 48.34138975 278.8714055 50.23024705 279.63288879 52.11924744 C280.92389603 55.32178951 282.21556802 58.52406285 283.50748444 61.72623825 C284.3228073 63.74723116 285.13796445 65.76829083 285.95307922 67.78936768 C291.95983771 82.68279718 297.9698571 97.57488515 304.00679016 112.45611572 C304.85822026 114.55520422 305.70903144 116.65454265 306.55970764 118.75393677 C309.62305196 126.31172047 312.69537378 133.86576426 315.77638245 141.41636658 C317.5587323 145.7872547 319.33679883 150.1598783 321.11421204 154.53277588 C321.98515006 156.67261082 322.85796859 158.81168141 323.73274231 160.94995117 C324.94756278 163.91989229 326.15594201 166.89237801 327.3629303 169.86550903 C327.91479759 171.20792915 327.91479759 171.20792915 328.47781372 172.57746887 C328.81042709 173.40035904 329.14304047 174.22324921 329.48573303 175.07107544 C329.77802292 175.78776398 330.07031281 176.50445251 330.37145996 177.24285889 C330.99183655 179.13894653 330.99183655 179.13894653 330.99183655 182.13894653 C324.78053957 182.23772549 318.56969837 182.31037285 312.35780334 182.3586731 C310.24411558 182.378805 308.13048361 182.40611297 306.01698303 182.44070435 C302.9811172 182.4891528 299.94598677 182.5118993 296.9098053 182.52957153 C295.96284286 182.55021667 295.01588043 182.57086182 294.04022217 182.59213257 C287.49084127 182.59437937 287.49084127 182.59437937 284.93397522 180.26077271 C283.89600593 177.92312277 282.94040534 175.6247795 282.11683655 173.20144653 C280.26273098 167.86732744 278.23287649 162.62206258 276.14027405 157.37722778 C274.83994484 153.71065324 273.93537884 149.91311569 272.99183655 146.13894653 C250.88183655 146.46894653 228.77183655 146.79894653 205.99183655 147.13894653 C202.71316552 155.007757 199.58778959 162.80852114 196.74183655 170.82644653 C196.05168603 172.76876353 195.35911481 174.71022271 194.66371155 176.65066528 C194.36561584 177.4907312 194.06752014 178.33079712 193.76039124 179.19631958 C192.99183655 181.13894653 192.99183655 181.13894653 191.99183655 182.13894653 C189.2152875 182.29272753 186.46258787 182.38129551 183.68348694 182.42703247 C182.81182892 182.44484772 181.9401709 182.46266296 181.042099 182.48101807 C172.97321069 182.63585786 164.90308926 182.72300113 156.83304691 182.79101181 C151.41118189 182.83713947 145.99148481 182.90440974 140.57069397 183.02371216 C135.33028724 183.13862799 130.09182411 183.19893841 124.85023308 183.22153473 C122.8570244 183.23926847 120.86388642 183.27600478 118.87140083 183.33254242 C102.47801517 183.77557978 102.47801517 183.77557978 97.63755798 179.80801392 C95.08797187 177.04126363 93.04387327 174.28560011 90.99183655 171.13894653 C89.50872209 169.29192661 88.01075515 167.45663666 86.49183655 165.63894653 C85.75964905 164.73144653 85.02746155 163.82394653 84.27308655 162.88894653 C81.12871548 159.09847182 77.787816 155.50350268 74.45277405 151.88113403 C72.0814376 149.23878771 69.83930657 146.53200487 67.61683655 143.76394653 C64.22796894 139.56079272 60.67937065 135.57699404 56.99183655 131.63894653 C51.71859383 126.00519727 46.81036836 120.16950169 41.99183655 114.13894653 C40.35205374 112.10986277 38.69870573 110.11251402 36.99183655 108.13894653 C36.66183655 108.13894653 36.33183655 108.13894653 35.99183655 108.13894653 C35.66183655 132.55894653 35.33183655 156.97894653 34.99183655 182.13894653 C21.46183655 182.13894653 7.93183655 182.13894653 -6.00816345 182.13894653 C-6.161121 158.55677683 -6.30994424 134.97459307 -6.45112705 111.3923502 C-6.51680986 100.44352409 -6.58438321 89.49471566 -6.65635681 78.54592896 C-6.71906011 69.00663994 -6.77826764 59.46733685 -6.83321899 49.92799991 C-6.86245797 44.87369193 -6.89348696 39.81940883 -6.92869759 34.76513863 C-6.96174354 30.01368251 -6.99013645 25.26222193 -7.01486969 20.51071548 C-7.02481184 18.76149992 -7.03649379 17.0122933 -7.04999352 15.26310158 C-7.06808903 12.88562023 -7.08007901 10.50818667 -7.0904541 8.13066101 C-7.09725789 7.42931221 -7.10406168 6.72796341 -7.11107165 6.00536162 C-7.11489992 4.38286512 -7.06721526 2.76037258 -7.00816345 1.13894653 C-5.14307264 -0.72614428 -2.48118513 0.01010114 0 0 Z M237.99183655 59.13894653 C237.69527161 59.9534729 237.39870667 60.76799927 237.09315491 61.60720825 C235.70720651 65.41018415 234.31880738 69.21225654 232.92933655 73.01394653 C232.68017487 73.69623322 232.43101318 74.3785199 232.17430115 75.08148193 C228.87780403 84.10143585 225.53745144 93.09703149 221.92323303 101.99588013 C220.76867256 104.88246041 219.99183655 106.99605108 219.99183655 110.13894653 C232.86183655 110.13894653 245.73183655 110.13894653 258.99183655 110.13894653 C258.00183655 106.50894653 257.01183655 102.87894653 255.99183655 99.13894653 C255.33183655 99.13894653 254.67183655 99.13894653 253.99183655 99.13894653 C252.15781351 93.17225826 250.45294403 87.20816221 248.99183655 81.13894653 C248.33183655 81.13894653 247.67183655 81.13894653 246.99183655 81.13894653 C246.89000061 80.32168091 246.78816467 79.50441528 246.6832428 78.66238403 C245.86253015 74.47999528 244.47278664 70.72463284 242.92933655 66.76394653 C242.64767639 66.02789185 242.36601624 65.29183716 242.07582092 64.53347778 C241.38617036 62.73337293 240.68969723 60.93588444 239.99183655 59.13894653 C239.33183655 59.13894653 238.67183655 59.13894653 237.99183655 59.13894653 Z " fill="#2D55D2" transform="translate(278.00816345214844,236.86105346679688)"/>
<path d="M0 0 C1.31157326 -0.00472824 1.31157326 -0.00472824 2.64964294 -0.009552 C4.07615929 -0.00651566 4.07615929 -0.00651566 5.53149414 -0.00341797 C6.50196182 -0.00437469 7.4724295 -0.00533142 8.4723053 -0.00631714 C10.52938908 -0.00699912 12.58647501 -0.00514361 14.64355469 -0.00097656 C17.79960961 0.00436569 20.95552184 -0.000918 24.11157227 -0.00732422 C26.10571321 -0.00666333 28.09985406 -0.00538194 30.09399414 -0.00341797 C31.0429808 -0.0054422 31.99196747 -0.00746643 32.9697113 -0.009552 C33.84724564 -0.00639984 34.72477997 -0.00324768 35.62890625 0 C36.79020302 0.00119339 36.79020302 0.00119339 37.97496033 0.00241089 C39.87915039 0.12939453 39.87915039 0.12939453 41.87915039 1.12939453 C42.83877636 4.0542873 43.66641416 6.942873 44.44165039 9.91845703 C44.697771 10.88006744 44.9538916 11.84167786 45.21777344 12.83242798 C49.09288224 27.5339697 52.66981463 42.31418377 56.28552246 57.08111572 C57.27072087 61.10284432 58.25853852 65.12392912 59.24633789 69.14501953 C59.4397728 69.9325272 59.6332077 70.72003487 59.83250427 71.5314064 C60.41049536 73.88439577 60.98856046 76.23736694 61.56665039 78.59033203 C61.75417877 79.35367607 61.94170715 80.11702011 62.13491821 80.90349579 C63.3819273 85.97905847 64.62994004 91.05437318 65.87915039 96.12939453 C66.03981995 96.78228958 66.2004895 97.43518463 66.36602783 98.10786438 C67.36628879 102.17075438 68.37132381 106.23243775 69.37915039 110.29345703 C69.62238037 111.28074799 69.86561035 112.26803894 70.11621094 113.2852478 C70.33704346 114.17177032 70.55787598 115.05829285 70.78540039 115.97167969 C70.97424805 116.73356598 71.1630957 117.49545227 71.35766602 118.28042603 C71.83712366 120.20169846 71.83712366 120.20169846 72.87915039 122.12939453 C73.10763672 121.25508789 73.33612305 120.38078125 73.5715332 119.47998047 C74.07185059 117.56620605 74.07185059 117.56620605 74.58227539 115.61376953 C74.86702728 114.5245369 74.86702728 114.5245369 75.15753174 113.41329956 C76.28457189 109.10373706 77.41357621 104.79469834 78.54516602 100.48632812 C81.36557106 89.74436077 84.17475377 78.99966424 86.96195602 68.2490387 C88.74879814 61.35832431 90.54243777 54.46939735 92.33986282 47.58143616 C93.47501744 43.22996453 94.60671723 38.87765243 95.73083496 34.52331543 C96.80716957 30.35444627 97.89216547 26.18792431 98.98348236 22.02295303 C99.38992049 20.46545161 99.79317651 18.90711598 100.19309235 17.34792709 C100.74602244 15.19416382 101.31021074 13.04365337 101.87719727 10.89355469 C102.19265503 9.6789859 102.50811279 8.46441711 102.83312988 7.21304321 C103.83682749 4.25416164 104.71295323 2.36368804 106.87915039 0.12939453 C109.83422852 -0.37231445 109.83422852 -0.37231445 113.41040039 -0.36669922 C115.33819336 -0.36766602 115.33819336 -0.36766602 117.30493164 -0.36865234 C118.3077417 -0.35306274 118.3077417 -0.35306274 119.33081055 -0.3371582 C121.37249013 -0.30819993 123.41157255 -0.31654872 125.45336914 -0.32958984 C135.32398294 -0.2652378 135.32398294 -0.2652378 137.4387207 1.23799133 C139.48102232 3.91970211 140.03798677 6.5357519 140.88110352 9.79589844 C141.14815708 10.8107505 141.14815708 10.8107505 141.42060566 11.84610462 C142.01033215 14.09696137 142.58529555 16.35132408 143.16040039 18.60595703 C143.5740707 20.19604978 143.98869595 21.78589436 144.40422058 23.37550354 C145.28444164 26.75041488 146.1583459 30.12687254 147.02719116 33.50473022 C148.37479025 38.74341556 149.73646231 43.97837064 151.10107422 49.21264648 C152.67079909 55.23659978 154.23798978 61.26119578 155.80091953 67.28691578 C158.78411952 78.78644427 161.80397978 90.27571619 164.87963867 101.75091553 C165.55468278 104.27219568 166.22486861 106.79473365 166.89477539 109.31738281 C167.28897168 110.78996601 167.68347789 112.2624663 168.07836914 113.73486328 C168.40667725 114.96358154 168.73498535 116.1922998 169.07324219 117.45825195 C169.61841979 120.02623702 169.61841979 120.02623702 170.87915039 121.12939453 C171.15864532 119.99262268 171.15864532 119.99262268 171.44378662 118.83288574 C172.35439232 115.1296041 173.26515732 111.42636165 174.17602539 107.72314453 C174.43233419 106.68108006 174.43233419 106.68108006 174.69382095 105.61796379 C176.78021183 97.1361151 178.86877487 88.65480685 180.96166992 80.17456055 C181.15504 79.39101354 181.34841007 78.60746653 181.54763985 77.80017567 C182.33162509 74.62358336 183.11565483 71.44700207 183.89992142 68.2704792 C186.1819888 59.02687346 188.45594103 49.78141755 190.7121582 40.53146362 C191.80231254 36.06748686 192.899658 31.60530099 193.99890137 27.14355469 C194.50056038 25.09994492 194.99887755 23.05551178 195.49377441 21.01025391 C196.17353521 18.20272254 196.86472668 15.39825032 197.55883789 12.59423828 C197.75188507 11.78393661 197.94493225 10.97363495 198.14382935 10.13877869 C200.12638365 2.23612831 200.12638365 2.23612831 202.87915039 0.12939453 C206.09306386 -0.42682623 209.25471931 -0.35837933 212.50805664 -0.29638672 C213.45349838 -0.2930986 214.39894012 -0.28981049 215.37303162 -0.28642273 C217.3711536 -0.27599957 219.36924519 -0.25604576 221.3671875 -0.22729492 C224.43319229 -0.18322704 227.49841502 -0.16586217 230.56469727 -0.15380859 C232.50416174 -0.14038451 234.44361654 -0.12546154 236.38305664 -0.10888672 C237.30389542 -0.10149979 238.22473419 -0.09411285 239.17347717 -0.08650208 C240.02453537 -0.07366684 240.87559357 -0.0608316 241.75244141 -0.04760742 C242.87804222 -0.03284111 242.87804222 -0.03284111 244.02638245 -0.01777649 C245.87915039 0.12939453 245.87915039 0.12939453 247.87915039 1.12939453 C247.18546762 7.39109589 245.5663118 13.26252998 243.84399414 19.31298828 C243.53401993 20.41518707 243.22404572 21.51738586 242.90467834 22.65298462 C241.87982065 26.29223646 240.84835856 29.92957936 239.81665039 33.56689453 C239.27515516 35.48485359 238.73366363 37.40281373 238.19260216 39.3208952 C231.50172517 63.03896463 224.73204583 86.73473785 217.94236755 110.42468262 C215.60317227 118.59032601 213.27531011 126.75913877 210.9525528 134.92946815 C209.66113585 139.47094587 208.36785254 144.01189271 207.07495117 148.552948 C206.36636614 151.0436785 205.6586702 153.53466212 204.9519043 156.02590942 C203.97431957 159.47124753 202.99349371 162.91564765 202.01196289 166.35986328 C201.7231424 167.38105255 201.4343219 168.40224182 201.13674927 169.45437622 C200.86756683 170.39667084 200.5983844 171.33896545 200.32104492 172.30981445 C200.08950714 173.12463791 199.85796936 173.93946136 199.61941528 174.77897644 C198.8292605 177.28780012 197.8845852 179.69970895 196.87915039 182.12939453 C190.3831866 182.25601199 183.88754003 182.34366799 177.390625 182.40405273 C175.17989206 182.42922083 172.96924251 182.46335834 170.75878906 182.5065918 C167.58385672 182.56714133 164.41002278 182.59558123 161.23461914 182.61767578 C160.24390915 182.64348221 159.25319916 182.66928864 158.23246765 182.69587708 C155.68503165 182.69692196 153.37132322 182.65678688 150.87915039 182.12939453 C147.78018459 178.67482759 147.03092358 174.58291753 145.87915039 170.12939453 C145.54915039 168.97439453 145.21915039 167.81939453 144.87915039 166.62939453 C138.54581706 144.46272786 132.21248372 122.2960612 125.87915039 100.12939453 C125.52852539 99.01564453 125.17790039 97.90189453 124.81665039 96.75439453 C123.73029676 92.55382717 123.25083904 88.44293911 122.87915039 84.12939453 C122.21915039 84.12939453 121.55915039 84.12939453 120.87915039 84.12939453 C120.77586426 85.05872803 120.67257812 85.98806152 120.56616211 86.94555664 C119.82265447 92.11334682 118.32617033 97.06123487 116.88696289 102.07080078 C116.4337693 103.66828156 116.4337693 103.66828156 115.97142029 105.29803467 C114.98682408 108.76395143 113.99562712 112.2279404 113.00415039 115.69189453 C112.32537577 118.07551458 111.64691091 120.45922285 110.96875 122.84301758 C105.3351271 142.62342204 99.62280097 162.38067816 93.87915039 182.12939453 C78.36915039 182.12939453 62.85915039 182.12939453 46.87915039 182.12939453 C44.57592457 177.5229429 43.15945369 173.99454709 41.87915039 169.12939453 C41.38415039 167.39689453 41.38415039 167.39689453 40.87915039 165.62939453 C34.54581706 143.46272786 28.21248372 121.2960612 21.87915039 99.12939453 C21.54915039 98.03626953 21.21915039 96.94314453 20.87915039 95.81689453 C19.85802193 92.05148334 19.1188534 88.30092497 18.44165039 84.46142578 C17.87346355 82.10581784 16.98473177 80.27341671 15.87915039 78.12939453 C15.73477539 77.22189453 15.59040039 76.31439453 15.44165039 75.37939453 C14.97461056 72.68094216 14.37203324 70.64277913 13.37915039 68.12939453 C12.06695976 64.79844908 11.46850876 61.66554476 10.87915039 58.12939453 C10.17706967 56.07899971 9.4055223 54.07006058 8.59790039 52.05908203 C7.86791558 50.09923151 7.36212238 48.16274721 6.87915039 46.12939453 C6.56977539 45.07751953 6.26040039 44.02564453 5.94165039 42.94189453 C5.17182738 40.17958843 4.52095989 37.49189046 3.94165039 34.69189453 C2.9973596 30.30019293 1.50962122 26.31190665 -0.12084961 22.12939453 C-0.46797813 20.79958602 -0.80191882 19.46624607 -1.12084961 18.12939453 C-1.43022461 17.09814453 -1.73959961 16.06689453 -2.05834961 15.00439453 C-3.36198816 10.46141171 -4.50115335 5.81753149 -5.12084961 1.12939453 C-3.57826352 -0.41319155 -2.14721226 0.00220882 0 0 Z M188.87915039 52.12939453 C189.87915039 54.12939453 189.87915039 54.12939453 189.87915039 54.12939453 Z M186.87915039 60.12939453 C187.87915039 62.12939453 187.87915039 62.12939453 187.87915039 62.12939453 Z M184.87915039 68.12939453 C185.87915039 70.12939453 185.87915039 70.12939453 185.87915039 70.12939453 Z M182.87915039 76.12939453 C183.87915039 78.12939453 183.87915039 78.12939453 183.87915039 78.12939453 Z M180.87915039 84.12939453 C181.87915039 86.12939453 181.87915039 86.12939453 181.87915039 86.12939453 Z M178.87915039 92.12939453 C179.87915039 94.12939453 179.87915039 94.12939453 179.87915039 94.12939453 Z " fill="#2D55D2" transform="translate(604.120849609375,236.87060546875)"/>
<path d="M0 0 C0.78674103 -0.0066568 1.57348206 -0.0133136 2.38406372 -0.02017212 C4.05012674 -0.03030549 5.71623041 -0.03498893 7.38232422 -0.03466797 C9.92874352 -0.03903409 12.47341967 -0.07532373 15.01953125 -0.11328125 C16.6380149 -0.11915076 18.2565068 -0.12311926 19.875 -0.125 C20.6355368 -0.13937103 21.39607361 -0.15374207 22.17965698 -0.16854858 C25.45667895 -0.14030676 27.54112099 -0.08945499 30.14279175 2.00190735 C32.31806856 4.63594471 33.40274275 6.9832504 34.63769531 10.16625977 C35.10036804 11.3419603 35.56304077 12.51766083 36.03973389 13.72898865 C36.53437688 15.01591148 37.02894248 16.30286406 37.5234375 17.58984375 C38.04993931 18.93643268 38.57757002 20.2825807 39.10626221 21.62831116 C40.21243755 24.44671365 41.31363132 27.2669881 42.41137695 30.08868408 C44.76280133 36.12246001 47.17174297 42.13314291 49.57921219 48.14472008 C50.63955117 50.79371443 51.69723209 53.44376664 52.75490761 56.09382534 C62.01843816 79.30318123 71.30344995 102.50127777 80.83422852 125.60253906 C85.35959419 136.57375354 89.79946416 147.57682311 94.18115234 158.60620117 C96.76323455 165.1009716 99.40875278 171.55985099 102.16333008 177.98364258 C103.0703125 180.3359375 103.0703125 180.3359375 103.0703125 182.3359375 C96.71676885 182.46256389 90.36354961 182.55021451 84.0090332 182.6105957 C81.84680014 182.63576249 79.68465232 182.66989908 77.52270508 182.71313477 C74.41726678 182.77369046 71.31295153 182.80212537 68.20703125 182.82421875 C67.23819504 182.85002518 66.26935883 182.8758316 65.27116394 182.90242004 C62.77114342 182.90346827 60.51298621 182.86859514 58.0703125 182.3359375 C55.98730469 179.93701172 55.98730469 179.93701172 55.0703125 177.3359375 C54.80347656 176.64113281 54.53664063 175.94632813 54.26171875 175.23046875 C54.05417969 174.54339844 53.84664062 173.85632813 53.6328125 173.1484375 C52.57580049 169.81137866 51.39559861 166.57608567 50.0703125 163.3359375 C48.43304874 159.32119111 47.00347647 155.27767953 45.68359375 151.1484375 C45.0934846 149.26815976 45.0934846 149.26815976 44.0703125 147.3359375 C21.6303125 147.3359375 -0.8096875 147.3359375 -23.9296875 147.3359375 C-24.2596875 148.9859375 -24.5896875 150.6359375 -24.9296875 152.3359375 C-25.72868661 154.69855061 -26.56769472 157.0477961 -27.43359375 159.38671875 C-27.87775635 160.59239502 -28.32191895 161.79807129 -28.77954102 163.0402832 C-29.34471436 164.56097412 -29.9098877 166.08166504 -30.4921875 167.6484375 C-32.2865625 172.4953125 -34.0809375 177.3421875 -35.9296875 182.3359375 C-50.7796875 182.3359375 -65.6296875 182.3359375 -80.9296875 182.3359375 C-79.80473881 174.46129665 -79.80473881 174.46129665 -78.25341797 170.67236328 C-77.90637817 169.81352036 -77.55933838 168.95467743 -77.20178223 168.06980896 C-76.82066284 167.1495845 -76.43954346 166.22936005 -76.046875 165.28125 C-75.64496948 164.29258438 -75.24306396 163.30391876 -74.82897949 162.28529358 C-73.49472767 159.00752958 -72.14960244 155.734339 -70.8046875 152.4609375 C-69.85803135 150.14007853 -68.91224719 147.81886372 -67.96728516 145.49731445 C-66.48268279 141.8511098 -64.99760784 138.20510674 -63.50863647 134.5606842 C-58.54997245 122.42337029 -53.64585169 110.26424661 -48.74688721 98.10272217 C-46.34923309 92.1521686 -43.94798084 86.20306766 -41.546875 80.25390625 C-41.07841156 79.09308533 -40.60994812 77.9322644 -40.12728882 76.73626709 C-35.636224 65.60793218 -31.1442697 54.47995722 -26.64874268 43.35342407 C-25.85260838 41.38277944 -25.05666095 39.4120593 -24.26092529 37.44125366 C-22.15142915 32.21693949 -20.03742272 26.99449814 -17.91748047 21.77441406 C-16.91279836 19.29424477 -15.91522498 16.81128813 -14.91796875 14.328125 C-14.28670156 12.76813072 -13.65520269 11.20823017 -13.0234375 9.6484375 C-12.73891724 8.93486084 -12.45439697 8.22128418 -12.16125488 7.48608398 C-9.32208811 0.51255577 -7.18984095 0.02092906 0 0 Z M10.0703125 59.3359375 C7.50217577 65.99104959 4.93920943 72.64813554 2.37988281 79.30664062 C1.5080357 81.57305304 0.63499188 83.83900547 -0.23925781 86.10449219 C-1.49336223 89.35492608 -2.74319851 92.60697265 -3.9921875 95.859375 C-4.38591553 96.87712006 -4.77964355 97.89486511 -5.18530273 98.94345093 C-5.54567627 99.88427521 -5.9060498 100.82509949 -6.27734375 101.79443359 C-6.59711182 102.62494232 -6.91687988 103.45545105 -7.24633789 104.31112671 C-8.03627702 106.29560053 -8.03627702 106.29560053 -7.9296875 108.3359375 C4.2803125 108.3359375 16.4903125 108.3359375 29.0703125 108.3359375 C29.0703125 106.6859375 29.0703125 105.0359375 29.0703125 103.3359375 C28.4103125 103.3359375 27.7503125 103.3359375 27.0703125 103.3359375 C26.5753125 99.3759375 26.5753125 99.3759375 26.0703125 95.3359375 C25.4103125 95.3359375 24.7503125 95.3359375 24.0703125 95.3359375 C23.88275391 94.29179687 23.88275391 94.29179687 23.69140625 93.2265625 C23.01968099 90.10029402 22.12478765 87.12549909 21.1328125 84.0859375 C20.79378906 83.02890625 20.45476562 81.971875 20.10546875 80.8828125 C19.33981533 78.19560042 19.33981533 78.19560042 17.0703125 77.3359375 C16.9465625 76.5521875 16.8228125 75.7684375 16.6953125 74.9609375 C15.8192421 69.87972916 14.19292047 65.03771441 12.0703125 60.3359375 C11.4103125 60.0059375 10.7503125 59.6759375 10.0703125 59.3359375 Z M-7.9296875 109.3359375 C-7.9296875 109.6659375 -7.9296875 109.9959375 -7.9296875 110.3359375 C4.9403125 110.3359375 17.8103125 110.3359375 31.0703125 110.3359375 C31.0703125 110.0059375 31.0703125 109.6759375 31.0703125 109.3359375 C18.2003125 109.3359375 5.3303125 109.3359375 -7.9296875 109.3359375 Z " fill="#2D55D2" transform="translate(923.9296875,236.6640625)"/>
<path d="M0 0 C0.33 0 0.66 0 1 0 C1 58.74 1 117.48 1 178 C0.67 178 0.34 178 0 178 C0 119.26 0 60.52 0 0 Z " fill="#2D55D2" transform="translate(270,239)"/>
<path d="M0 0 C11.55 0 23.1 0 35 0 C35 0.33 35 0.66 35 1 C23.45 1 11.9 1 0 1 C0 0.67 0 0.34 0 0 Z " fill="#2D55D2" transform="translate(500,345)"/>
</svg>
