<?xml version="1.0" encoding="UTF-8"?>
<!-- Generator: visioncortex VTracer 0.6.2 -->
<svg version="1.1" xmlns="http://www.w3.org/2000/svg" width="1280" height="720">
<path d="M0 0 C1.262463 0.00303635 1.262463 0.00303635 2.5504303 0.00613403 C3.83966148 0.00469894 3.83966148 0.00469894 5.15493774 0.00323486 C6.97662936 0.00255296 8.7983234 0.00440792 10.62001038 0.00857544 C13.41392975 0.01391708 16.20768788 0.00863415 19.00160217 0.00222778 C20.76787857 0.00288869 22.53415487 0.00417012 24.3004303 0.00613403 C25.14004807 0.0041098 25.97966583 0.00208557 26.84472656 0 C32.7619271 0.02399181 32.7619271 0.02399181 34.99183655 1.13894653 C35.32183655 24.23894653 35.65183655 47.33894653 35.99183655 71.13894653 C40.01454666 67.14239537 40.01454666 67.14239537 43.78871155 62.97488403 C44.26759827 62.41607544 44.74648499 61.85726685 45.23988342 61.28152466 C45.73552795 60.69822388 46.23117249 60.1149231 46.74183655 59.51394653 C47.26841858 58.89713013 47.79500061 58.28031372 48.33753967 57.64480591 C52.17297266 53.13828866 55.92476182 48.56808906 59.65589905 43.97488403 C63.35076326 39.48914587 67.15144476 35.0953982 70.9410553 30.68972778 C78.11593355 22.34753537 85.20582232 13.94367739 92.11683655 5.38113403 C92.73558655 4.64121216 93.35433655 3.90129028 93.99183655 3.13894653 C94.64980225 2.33810638 94.64980225 2.33810638 95.32106018 1.52108765 C97.51726598 -0.29571225 98.77195697 -0.23008032 101.59925842 -0.21749878 C102.5303241 -0.22049988 103.46138977 -0.22350098 104.42066956 -0.22659302 C105.92542847 -0.20807281 105.92542847 -0.20807281 107.46058655 -0.18917847 C109.00836792 -0.18636871 109.00836792 -0.18636871 110.5874176 -0.1835022 C112.76962005 -0.17677795 114.95181037 -0.16285614 117.13392639 -0.14230347 C120.47860385 -0.11117662 123.82280992 -0.10133541 127.1676178 -0.09542847 C129.28611314 -0.08625732 131.40460368 -0.07588119 133.52308655 -0.06417847 C134.52625916 -0.05992859 135.52943176 -0.05567871 136.56300354 -0.05130005 C137.95960205 -0.03688873 137.95960205 -0.03688873 139.38441467 -0.02218628 C140.61327393 -0.01194427 140.61327393 -0.01194427 141.86695862 -0.00149536 C143.99183655 0.13894653 143.99183655 0.13894653 146.99183655 1.13894653 C145.70259674 3.9271789 144.30564124 6.12891256 142.2691803 8.42410278 C141.73550842 9.03125122 141.20183655 9.63839966 140.6519928 10.26394653 C139.79927795 11.22300903 139.79927795 11.22300903 138.92933655 12.20144653 C137.73933194 13.55585967 136.55053398 14.91133392 135.3629303 16.26785278 C134.78269104 16.93059204 134.20245178 17.5933313 133.60462952 18.27615356 C131.51521183 20.68945314 129.4972233 23.15555326 127.49183655 25.63894653 C122.36321524 31.96768398 116.99908984 38.08600488 111.65150452 44.22927856 C104.77123416 52.14594151 97.96671745 60.11115247 91.36683655 68.26394653 C89.53789796 70.47792482 87.68706055 72.65886595 85.80433655 74.82644653 C85.25584045 75.45873169 84.70734436 76.09101685 84.14222717 76.74246216 C83.06159079 77.98423486 81.97709134 79.22265882 80.88832092 80.45730591 C78.67305178 83.00355891 77.07041917 84.90319866 75.99183655 88.13894653 C77.0263092 89.24689575 77.0263092 89.24689575 78.0816803 90.37722778 C82.64141781 95.28991398 87.12049415 100.20980247 91.30433655 105.45144653 C95.55864398 110.74450767 100.15881855 115.64618891 104.82337952 120.57376099 C109.13508639 125.15311932 113.12506865 129.87945819 117.0504303 134.79519653 C119.27705453 137.48327407 121.69144708 139.86603039 124.1988678 142.28738403 C127.17431534 145.36006842 129.76367342 148.74544633 132.43714905 152.08035278 C135.8567642 156.17447919 139.49105557 160.04934575 143.18202209 163.89920044 C146.99183655 167.92772761 146.99183655 167.92772761 146.99183655 170.13894653 C147.98183655 170.13894653 148.97183655 170.13894653 149.99183655 170.13894653 C157.46880311 153.02110849 164.46810615 135.71977441 171.42652893 118.38699341 C172.87546249 114.77946922 174.32739716 111.1731534 175.77894592 107.56668091 C181.01316858 94.55818579 186.23285879 81.54392166 191.43704987 68.52338409 C196.69283198 55.37427972 201.95402363 42.22748148 207.27723694 29.10549927 C208.14772333 26.95565915 209.0151103 24.80456207 209.879776 22.65237427 C211.1612396 19.46394549 212.4523817 16.27959567 213.7457428 13.09597778 C214.32226341 11.65264824 214.32226341 11.65264824 214.91043091 10.18016052 C215.27188705 9.29620102 215.6333432 8.41224152 216.00575256 7.50149536 C216.31819412 6.7281636 216.63063568 5.95483185 216.95254517 5.1580658 C218.07249219 2.98224999 219.06447054 1.64594998 220.99183655 0.13894653 C223.75602687 -0.1593069 226.29032249 -0.28150233 229.05433655 -0.25949097 C229.8420343 -0.26236115 230.62973206 -0.26523132 231.44129944 -0.26818848 C233.1056134 -0.27022868 234.76995136 -0.26470179 236.43421936 -0.25216675 C238.98261601 -0.23611156 241.52942676 -0.25201591 244.07777405 -0.27120972 C245.69496505 -0.26922728 247.31215507 -0.26538358 248.92933655 -0.25949097 C249.69189758 -0.26556366 250.45445862 -0.27163635 251.24012756 -0.27789307 C256.52413395 -0.20759835 256.52413395 -0.20759835 258.56137085 1.30189514 C260.42629651 3.69689439 261.37227163 6.09080591 262.47694397 8.91995239 C262.94514053 10.10609634 263.4133371 11.2922403 263.89572144 12.514328 C264.40043474 13.81497484 264.90512882 15.11562915 265.4098053 16.41629028 C265.9418116 17.76974274 266.47472031 19.12284079 267.00848389 20.4756012 C268.12009098 23.29384807 269.22850551 26.11332008 270.33503723 28.93356323 C272.63641572 34.78779231 274.99012756 40.6207723 277.34667206 46.45296288 C278.10957662 48.34138975 278.8714055 50.23024705 279.63288879 52.11924744 C280.92389603 55.32178951 282.21556802 58.52406285 283.50748444 61.72623825 C284.3228073 63.74723116 285.13796445 65.76829083 285.95307922 67.78936768 C291.95983771 82.68279718 297.9698571 97.57488515 304.00679016 112.45611572 C304.85822026 114.55520422 305.70903144 116.65454265 306.55970764 118.75393677 C309.62305196 126.31172047 312.69537378 133.86576426 315.77638245 141.41636658 C317.5587323 145.7872547 319.33679883 150.1598783 321.11421204 154.53277588 C321.98515006 156.67261082 322.85796859 158.81168141 323.73274231 160.94995117 C324.94756278 163.91989229 326.15594201 166.89237801 327.3629303 169.86550903 C327.91479759 171.20792915 327.91479759 171.20792915 328.47781372 172.57746887 C328.81042709 173.40035904 329.14304047 174.22324921 329.48573303 175.07107544 C329.77802292 175.78776398 330.07031281 176.50445251 330.37145996 177.24285889 C330.99183655 179.13894653 330.99183655 179.13894653 330.99183655 182.13894653 C324.78053957 182.23772549 318.56969837 182.31037285 312.35780334 182.3586731 C310.24411558 182.378805 308.13048361 182.40611297 306.01698303 182.44070435 C302.9811172 182.4891528 299.94598677 182.5118993 296.9098053 182.52957153 C295.96284286 182.55021667 295.01588043 182.57086182 294.04022217 182.59213257 C287.49084127 182.59437937 287.49084127 182.59437937 284.93397522 180.26077271 C283.89600593 177.92312277 282.94040534 175.6247795 282.11683655 173.20144653 C280.26273098 167.86732744 278.23287649 162.62206258 276.14027405 157.37722778 C274.83994484 153.71065324 273.93537884 149.91311569 272.99183655 146.13894653 C250.88183655 146.46894653 228.77183655 146.79894653 205.99183655 147.13894653 C202.71316552 155.007757 199.58778959 162.80852114 196.74183655 170.82644653 C196.05168603 172.76876353 195.35911481 174.71022271 194.66371155 176.65066528 C194.36561584 177.4907312 194.06752014 178.33079712 193.76039124 179.19631958 C192.99183655 181.13894653 192.99183655 181.13894653 191.99183655 182.13894653 C189.2152875 182.29272753 186.46258787 182.38129551 183.68348694 182.42703247 C182.81182892 182.44484772 181.9401709 182.46266296 181.042099 182.48101807 C172.97321069 182.63585786 164.90308926 182.72300113 156.83304691 182.79101181 C151.41118189 182.83713947 145.99148481 182.90440974 140.57069397 183.02371216 C135.33028724 183.13862799 130.09182411 183.19893841 124.85023308 183.22153473 C122.8570244 183.23926847 120.86388642 183.27600478 118.87140083 183.33254242 C102.47801517 183.77557978 102.47801517 183.77557978 97.63755798 179.80801392 C95.08797187 177.04126363 93.04387327 174.28560011 90.99183655 171.13894653 C89.50872209 169.29192661 88.01075515 167.45663666 86.49183655 165.63894653 C85.75964905 164.73144653 85.02746155 163.82394653 84.27308655 162.88894653 C81.12871548 159.09847182 77.787816 155.50350268 74.45277405 151.88113403 C72.0814376 149.23878771 69.83930657 146.53200487 67.61683655 143.76394653 C64.22796894 139.56079272 60.67937065 135.57699404 56.99183655 131.63894653 C51.71859383 126.00519727 46.81036836 120.16950169 41.99183655 114.13894653 C40.35205374 112.10986277 38.69870573 110.11251402 36.99183655 108.13894653 C36.66183655 108.13894653 36.33183655 108.13894653 35.99183655 108.13894653 C35.66183655 132.55894653 35.33183655 156.97894653 34.99183655 182.13894653 C21.46183655 182.13894653 7.93183655 182.13894653 -6.00816345 182.13894653 C-6.161121 158.55677683 -6.30994424 134.97459307 -6.45112705 111.3923502 C-6.51680986 100.44352409 -6.58438321 89.49471566 -6.65635681 78.54592896 C-6.71906011 69.00663994 -6.77826764 59.46733685 -6.83321899 49.92799991 C-6.86245797 44.87369193 -6.89348696 39.81940883 -6.92869759 34.76513863 C-6.96174354 30.01368251 -6.99013645 25.26222193 -7.01486969 20.51071548 C-7.02481184 18.76149992 -7.03649379 17.0122933 -7.04999352 15.26310158 C-7.06808903 12.88562023 -7.08007901 10.50818667 -7.0904541 8.13066101 C-7.09725789 7.42931221 -7.10406168 6.72796341 -7.11107165 6.00536162 C-7.11489992 4.38286512 -7.06721526 2.76037258 -7.00816345 1.13894653 C-5.14307264 -0.72614428 -2.48118513 0.01010114 0 0 Z M237.99183655 59.13894653 C237.69527161 59.9534729 237.39870667 60.76799927 237.09315491 61.60720825 C235.70720651 65.41018415 234.31880738 69.21225654 232.92933655 73.01394653 C232.68017487 73.69623322 232.43101318 74.3785199 232.17430115 75.08148193 C228.87780403 84.10143585 225.53745144 93.09703149 221.92323303 101.99588013 C220.76867256 104.88246041 219.99183655 106.99605108 219.99183655 110.13894653 C232.86183655 110.13894653 245.73183655 110.13894653 258.99183655 110.13894653 C258.00183655 106.50894653 257.01183655 102.87894653 255.99183655 99.13894653 C255.33183655 99.13894653 254.67183655 99.13894653 253.99183655 99.13894653 C252.15781351 93.17225826 250.45294403 87.20816221 248.99183655 81.13894653 C248.33183655 81.13894653 247.67183655 81.13894653 246.99183655 81.13894653 C246.89000061 80.32168091 246.78816467 79.50441528 246.6832428 78.66238403 C245.86253015 74.47999528 244.47278664 70.72463284 242.92933655 66.76394653 C242.64767639 66.02789185 242.36601624 65.29183716 242.07582092 64.53347778 C241.38617036 62.73337293 240.68969723 60.93588444 239.99183655 59.13894653 C239.33183655 59.13894653 238.67183655 59.13894653 237.99183655 59.13894653 Z " fill="#FDFDFD" transform="translate(278.00816345214844,236.86105346679688)"/>
<path d="M0 0 C1.31157326 -0.00472824 1.31157326 -0.00472824 2.64964294 -0.009552 C4.07615929 -0.00651566 4.07615929 -0.00651566 5.53149414 -0.00341797 C6.50196182 -0.00437469 7.4724295 -0.00533142 8.4723053 -0.00631714 C10.52938908 -0.00699912 12.58647501 -0.00514361 14.64355469 -0.00097656 C17.79960961 0.00436569 20.95552184 -0.000918 24.11157227 -0.00732422 C26.10571321 -0.00666333 28.09985406 -0.00538194 30.09399414 -0.00341797 C31.0429808 -0.0054422 31.99196747 -0.00746643 32.9697113 -0.009552 C33.84724564 -0.00639984 34.72477997 -0.00324768 35.62890625 0 C36.79020302 0.00119339 36.79020302 0.00119339 37.97496033 0.00241089 C39.87915039 0.12939453 39.87915039 0.12939453 41.87915039 1.12939453 C42.83877636 4.0542873 43.66641416 6.942873 44.44165039 9.91845703 C44.697771 10.88006744 44.9538916 11.84167786 45.21777344 12.83242798 C49.09288224 27.5339697 52.66981463 42.31418377 56.28552246 57.08111572 C57.27072087 61.10284432 58.25853852 65.12392912 59.24633789 69.14501953 C59.4397728 69.9325272 59.6332077 70.72003487 59.83250427 71.5314064 C60.41049536 73.88439577 60.98856046 76.23736694 61.56665039 78.59033203 C61.75417877 79.35367607 61.94170715 80.11702011 62.13491821 80.90349579 C63.3819273 85.97905847 64.62994004 91.05437318 65.87915039 96.12939453 C66.03981995 96.78228958 66.2004895 97.43518463 66.36602783 98.10786438 C67.36628879 102.17075438 68.37132381 106.23243775 69.37915039 110.29345703 C69.62238037 111.28074799 69.86561035 112.26803894 70.11621094 113.2852478 C70.33704346 114.17177032 70.55787598 115.05829285 70.78540039 115.97167969 C70.97424805 116.73356598 71.1630957 117.49545227 71.35766602 118.28042603 C71.83712366 120.20169846 71.83712366 120.20169846 72.87915039 122.12939453 C73.10763672 121.25508789 73.33612305 120.38078125 73.5715332 119.47998047 C74.07185059 117.56620605 74.07185059 117.56620605 74.58227539 115.61376953 C74.86702728 114.5245369 74.86702728 114.5245369 75.15753174 113.41329956 C76.28457189 109.10373706 77.41357621 104.79469834 78.54516602 100.48632812 C81.36557106 89.74436077 84.17475377 78.99966424 86.96195602 68.2490387 C88.74879814 61.35832431 90.54243777 54.46939735 92.33986282 47.58143616 C93.47501744 43.22996453 94.60671723 38.87765243 95.73083496 34.52331543 C96.80716957 30.35444627 97.89216547 26.18792431 98.98348236 22.02295303 C99.38992049 20.46545161 99.79317651 18.90711598 100.19309235 17.34792709 C100.74602244 15.19416382 101.31021074 13.04365337 101.87719727 10.89355469 C102.19265503 9.6789859 102.50811279 8.46441711 102.83312988 7.21304321 C103.83682749 4.25416164 104.71295323 2.36368804 106.87915039 0.12939453 C109.83422852 -0.37231445 109.83422852 -0.37231445 113.41040039 -0.36669922 C115.33819336 -0.36766602 115.33819336 -0.36766602 117.30493164 -0.36865234 C118.3077417 -0.35306274 118.3077417 -0.35306274 119.33081055 -0.3371582 C121.37249013 -0.30819993 123.41157255 -0.31654872 125.45336914 -0.32958984 C135.20898615 -0.26598753 135.20898615 -0.26598753 137.64282227 1.16992188 C139.55103967 4.19428066 140.31953198 7.48486489 141.19165039 10.91455078 C141.40157623 11.70582367 141.61150208 12.49709656 141.82778931 13.31234741 C142.52136118 15.93639644 143.20022579 18.56402119 143.87915039 21.19189453 C144.36440457 23.03922071 144.85058499 24.88630381 145.33764648 26.7331543 C146.61013152 31.5678644 147.87047757 36.40565582 149.12805176 41.2442627 C150.32193091 45.83021002 151.5264755 50.41334596 152.73071289 54.99658203 C154.56554412 61.98509625 156.39627462 68.97466869 158.22290039 75.96533203 C158.44325958 76.80847961 158.66361877 77.6516272 158.89065552 78.52032471 C160.66646724 85.31502562 160.66646724 85.31502562 161.54956055 88.69641113 C162.83211721 93.60656377 164.11785068 98.51586096 165.40863037 103.42385864 C165.8028427 104.92521492 166.19580547 106.42689989 166.58746338 107.92892456 C167.12164386 109.97705988 167.6600029 112.02405079 168.19946289 114.07080078 C168.50126465 115.22265869 168.80306641 116.3745166 169.11401367 117.5612793 C169.63064875 120.03948165 169.63064875 120.03948165 170.87915039 121.12939453 C171.15864532 119.99262268 171.15864532 119.99262268 171.44378662 118.83288574 C172.35439232 115.1296041 173.26515732 111.42636165 174.17602539 107.72314453 C174.43233419 106.68108006 174.43233419 106.68108006 174.69382095 105.61796379 C176.78021183 97.1361151 178.86877487 88.65480685 180.96166992 80.17456055 C181.15504 79.39101354 181.34841007 78.60746653 181.54763985 77.80017567 C182.33162509 74.62358336 183.11565483 71.44700207 183.89992142 68.2704792 C186.1819888 59.02687346 188.45594103 49.78141755 190.7121582 40.53146362 C191.80231254 36.06748686 192.899658 31.60530099 193.99890137 27.14355469 C194.50056038 25.09994492 194.99887755 23.05551178 195.49377441 21.01025391 C196.17353521 18.20272254 196.86472668 15.39825032 197.55883789 12.59423828 C197.75188507 11.78393661 197.94493225 10.97363495 198.14382935 10.13877869 C200.12638365 2.23612831 200.12638365 2.23612831 202.87915039 0.12939453 C206.09306386 -0.42682623 209.25471931 -0.35837933 212.50805664 -0.29638672 C213.45349838 -0.2930986 214.39894012 -0.28981049 215.37303162 -0.28642273 C217.3711536 -0.27599957 219.36924519 -0.25604576 221.3671875 -0.22729492 C224.43319229 -0.18322704 227.49841502 -0.16586217 230.56469727 -0.15380859 C232.50416174 -0.14038451 234.44361654 -0.12546154 236.38305664 -0.10888672 C237.30389542 -0.10149979 238.22473419 -0.09411285 239.17347717 -0.08650208 C240.02453537 -0.07366684 240.87559357 -0.0608316 241.75244141 -0.04760742 C242.87804222 -0.03284111 242.87804222 -0.03284111 244.02638245 -0.01777649 C245.87915039 0.12939453 245.87915039 0.12939453 247.87915039 1.12939453 C247.18546769 7.39109524 245.56631552 13.26253126 243.84399414 19.31298828 C243.53406525 20.4150058 243.22413635 21.51702332 242.90481567 22.6524353 C241.87989391 26.29186491 240.84837686 29.92938864 239.81665039 33.56689453 C239.27461664 35.48699265 238.73258673 37.40709189 238.19099712 39.32731533 C232.50462508 59.48736338 226.7575201 79.63026986 220.98608398 99.76611328 C217.54503861 111.7749437 214.12183763 123.78851524 210.73195076 135.8118763 C210.13414367 137.93199837 209.5359368 140.05200725 208.93760681 142.17198181 C207.2038495 148.31566488 205.47118724 154.45963654 203.74588966 160.60570145 C202.87743732 163.69633303 202.0048676 166.78580272 201.13305664 169.87548828 C200.65926575 171.56951279 200.65926575 171.56951279 200.17590332 173.29776001 C199.88662964 174.32041962 199.59735596 175.34307922 199.29931641 176.39672852 C198.92203148 177.73887672 198.92203148 177.73887672 198.53712463 179.10813904 C197.87915039 181.12939453 197.87915039 181.12939453 196.87915039 182.12939453 C195.45312574 182.24825545 194.0213637 182.29943381 192.59057617 182.32226562 C191.67938019 182.33832855 190.7681842 182.35439148 189.82937622 182.37094116 C185.65798528 182.41521175 181.4867562 182.45645172 177.31518555 182.47949219 C175.11130221 182.49606763 172.90747297 182.52337829 170.70385742 182.56152344 C167.53544067 182.61612675 164.36828596 182.63814044 161.19946289 182.65283203 C159.71810349 182.68683609 159.71810349 182.68683609 158.20681763 182.7215271 C155.66710216 182.71363797 153.36170865 182.66486282 150.87915039 182.12939453 C147.78329154 178.67137038 147.03106398 174.58346041 145.87915039 170.12939453 C145.54915039 168.97439453 145.21915039 167.81939453 144.87915039 166.62939453 C138.54581706 144.46272786 132.21248372 122.2960612 125.87915039 100.12939453 C125.52852539 99.01564453 125.17790039 97.90189453 124.81665039 96.75439453 C123.73029676 92.55382717 123.25083904 88.44293911 122.87915039 84.12939453 C122.21915039 84.12939453 121.55915039 84.12939453 120.87915039 84.12939453 C120.78633789 85.02207031 120.69352539 85.91474609 120.59790039 86.83447266 C119.76209602 92.63939522 117.9941287 98.22215944 116.37915039 103.84814453 C116.02707016 105.08796082 115.67498993 106.3277771 115.3122406 107.60516357 C114.3675894 110.93092442 113.41725413 114.25503496 112.46564865 117.57881165 C111.68375845 120.31254639 110.90526679 123.04724359 110.1268568 125.78197098 C104.77519681 144.58316519 99.3679315 163.36774274 93.87915039 182.12939453 C78.36915039 182.12939453 62.85915039 182.12939453 46.87915039 182.12939453 C44.57592457 177.5229429 43.15945369 173.99454709 41.87915039 169.12939453 C41.38415039 167.39689453 41.38415039 167.39689453 40.87915039 165.62939453 C34.54581706 143.46272786 28.21248372 121.2960612 21.87915039 99.12939453 C21.54915039 98.03626953 21.21915039 96.94314453 20.87915039 95.81689453 C19.85802193 92.05148334 19.1188534 88.30092497 18.44165039 84.46142578 C17.87346355 82.10581784 16.98473177 80.27341671 15.87915039 78.12939453 C15.73477539 77.22189453 15.59040039 76.31439453 15.44165039 75.37939453 C14.97461056 72.68094216 14.37203324 70.64277913 13.37915039 68.12939453 C12.06695976 64.79844908 11.46850876 61.66554476 10.87915039 58.12939453 C10.40295056 56.78737683 9.90108153 55.45429666 9.37915039 54.12939453 C8.06695976 50.79844908 7.46850876 47.66554476 6.87915039 44.12939453 C6.40295056 42.78737683 5.90108153 41.45429666 5.37915039 40.12939453 C4.06695976 36.79844908 3.46850876 33.66554476 2.87915039 30.12939453 C2.17706967 28.07899971 1.4055223 26.07006058 0.59790039 24.05908203 C-0.13200259 22.0994512 -0.63702514 20.16227044 -1.12084961 18.12939453 C-1.43022461 17.09814453 -1.73959961 16.06689453 -2.05834961 15.00439453 C-3.36198816 10.46141171 -4.50115335 5.81753149 -5.12084961 1.12939453 C-3.57826352 -0.41319155 -2.14721226 0.00220882 0 0 Z M188.87915039 52.12939453 C189.87915039 54.12939453 189.87915039 54.12939453 189.87915039 54.12939453 Z M186.87915039 60.12939453 C187.87915039 62.12939453 187.87915039 62.12939453 187.87915039 62.12939453 Z M184.87915039 68.12939453 C185.87915039 70.12939453 185.87915039 70.12939453 185.87915039 70.12939453 Z M182.87915039 76.12939453 C183.87915039 78.12939453 183.87915039 78.12939453 183.87915039 78.12939453 Z M180.87915039 84.12939453 C181.87915039 86.12939453 181.87915039 86.12939453 181.87915039 86.12939453 Z M178.87915039 92.12939453 C179.87915039 94.12939453 179.87915039 94.12939453 179.87915039 94.12939453 Z M176.87915039 100.12939453 C177.87915039 102.12939453 177.87915039 102.12939453 177.87915039 102.12939453 Z M174.87915039 108.12939453 C175.87915039 110.12939453 175.87915039 110.12939453 175.87915039 110.12939453 Z M172.87915039 116.12939453 C173.87915039 118.12939453 173.87915039 118.12939453 173.87915039 118.12939453 Z " fill="#FDFDFD" transform="translate(604.120849609375,236.87060546875)"/>
<path d="M0 0 C1.18223396 -0.01210762 1.18223396 -0.01210762 2.38835144 -0.02445984 C4.06039215 -0.03831662 5.73246133 -0.04903162 7.40454102 -0.05688477 C9.95969516 -0.07407896 12.51354924 -0.11794607 15.06835938 -0.16210938 C16.69139672 -0.17223764 18.31444508 -0.18075333 19.9375 -0.1875 C21.08301079 -0.21376213 21.08301079 -0.21376213 22.25166321 -0.24055481 C25.53862036 -0.22714714 27.62959168 -0.19403054 30.24143982 1.90325928 C32.41511589 4.53783242 33.50060944 6.88613655 34.73535156 10.06860352 C35.19802429 11.24430405 35.66069702 12.42000458 36.13739014 13.6313324 C36.63203313 14.91825523 37.12659873 16.20520781 37.62109375 17.4921875 C38.14759556 18.83877643 38.67522627 20.18492445 39.20391846 21.53065491 C40.3100938 24.3490574 41.41128757 27.16933185 42.5090332 29.99102783 C44.86045758 36.02480376 47.26939922 42.03548666 49.67686844 48.04706383 C50.73720742 50.69605818 51.79488834 53.34611039 52.85256386 55.99616909 C62.11609441 79.20552498 71.4011062 102.40362152 80.93188477 125.50488281 C85.45725044 136.47609729 89.89712041 147.47916686 94.27880859 158.50854492 C96.8608908 165.00331535 99.50640903 171.46219474 102.26098633 177.88598633 C103.16796875 180.23828125 103.16796875 180.23828125 103.16796875 182.23828125 C96.8144251 182.36490764 90.46120586 182.45255826 84.10668945 182.51293945 C81.94445639 182.53810624 79.78230857 182.57224283 77.62036133 182.61547852 C74.51492303 182.67603421 71.41060778 182.70446912 68.3046875 182.7265625 C67.33585129 182.75236893 66.36701508 182.77817535 65.36882019 182.80476379 C62.86879967 182.80581202 60.61064246 182.77093889 58.16796875 182.23828125 C56.08496094 179.83935547 56.08496094 179.83935547 55.16796875 177.23828125 C54.90113281 176.54347656 54.63429688 175.84867188 54.359375 175.1328125 C54.15183594 174.44574219 53.94429687 173.75867188 53.73046875 173.05078125 C52.67345674 169.71372241 51.49325486 166.47842942 50.16796875 163.23828125 C48.53070499 159.22353486 47.10113272 155.18002328 45.78125 151.05078125 C45.19114085 149.17050351 45.19114085 149.17050351 44.16796875 147.23828125 C21.72796875 147.23828125 -0.71203125 147.23828125 -23.83203125 147.23828125 C-24.16203125 148.88828125 -24.49203125 150.53828125 -24.83203125 152.23828125 C-25.63103036 154.60089436 -26.47003847 156.95013985 -27.3359375 159.2890625 C-27.7801001 160.49473877 -28.2242627 161.70041504 -28.68188477 162.94262695 C-29.24705811 164.46331787 -29.81223145 165.98400879 -30.39453125 167.55078125 C-32.18890625 172.39765625 -33.98328125 177.24453125 -35.83203125 182.23828125 C-50.68203125 182.23828125 -65.53203125 182.23828125 -80.83203125 182.23828125 C-80.13227358 177.33997754 -79.70190077 174.35087444 -77.94042969 170.03637695 C-77.5469635 169.06146805 -77.15349731 168.08655914 -76.74810791 167.08210754 C-76.10129059 165.51392525 -76.10129059 165.51392525 -75.44140625 163.9140625 C-74.98973083 162.80097214 -74.53805542 161.68788177 -74.07269287 160.5410614 C-72.84049559 157.50830742 -71.60145115 154.47846243 -70.35946655 151.44970703 C-69.04554116 148.24037656 -67.74087558 145.02728744 -66.43554688 141.81445312 C-64.55195485 137.18037207 -62.66581442 132.5473454 -60.77610779 127.91575432 C-56.35583773 117.08164856 -51.97487416 106.23179938 -47.59921265 95.37960815 C-46.33020429 92.23375224 -45.05955698 89.08856352 -43.78833008 85.94360352 C-39.56604567 75.49714098 -35.35126616 65.04772924 -31.15158081 54.59216309 C-29.29930897 49.98077056 -27.44488556 45.3702441 -25.59005547 40.75988007 C-24.31176334 37.58203428 -23.03475577 34.40368483 -21.76074219 31.22412109 C-20.34871904 27.701579 -18.93258959 24.18071295 -17.515625 20.66015625 C-16.89203346 19.09971588 -16.89203346 19.09971588 -16.25584412 17.50775146 C-9.22909172 0.08856769 -9.22909172 0.08856769 0 0 Z M10.16796875 59.23828125 C7.59983202 65.89339334 5.03686568 72.55047929 2.47753906 79.20898438 C1.60569195 81.47539679 0.73264813 83.74134922 -0.14160156 86.00683594 C-1.39570598 89.25726983 -2.64554226 92.5093164 -3.89453125 95.76171875 C-4.28825928 96.77946381 -4.6819873 97.79720886 -5.08764648 98.84579468 C-5.44802002 99.78661896 -5.80839355 100.72744324 -6.1796875 101.69677734 C-6.49945557 102.52728607 -6.81922363 103.3577948 -7.14868164 104.21347046 C-7.93862077 106.19794428 -7.93862077 106.19794428 -7.83203125 108.23828125 C4.37796875 108.23828125 16.58796875 108.23828125 29.16796875 108.23828125 C29.16796875 106.58828125 29.16796875 104.93828125 29.16796875 103.23828125 C28.50796875 103.23828125 27.84796875 103.23828125 27.16796875 103.23828125 C26.67296875 99.27828125 26.67296875 99.27828125 26.16796875 95.23828125 C25.50796875 95.23828125 24.84796875 95.23828125 24.16796875 95.23828125 C23.98041016 94.19414062 23.98041016 94.19414062 23.7890625 93.12890625 C23.11733724 90.00263777 22.2224439 87.02784284 21.23046875 83.98828125 C20.89144531 82.93125 20.55242187 81.87421875 20.203125 80.78515625 C19.43747158 78.09794417 19.43747158 78.09794417 17.16796875 77.23828125 C17.04421875 76.45453125 16.92046875 75.67078125 16.79296875 74.86328125 C15.91689835 69.78207291 14.29057672 64.94005816 12.16796875 60.23828125 C11.50796875 59.90828125 10.84796875 59.57828125 10.16796875 59.23828125 Z M-7.83203125 109.23828125 C-7.83203125 109.56828125 -7.83203125 109.89828125 -7.83203125 110.23828125 C5.03796875 110.23828125 17.90796875 110.23828125 31.16796875 110.23828125 C31.16796875 109.90828125 31.16796875 109.57828125 31.16796875 109.23828125 C18.29796875 109.23828125 5.42796875 109.23828125 -7.83203125 109.23828125 Z " fill="#FDFDFD" transform="translate(923.83203125,236.76171875)"/>
<path d="M0 0 C0.33 0 0.66 0 1 0 C1 58.74 1 117.48 1 178 C0.67 178 0.34 178 0 178 C0 119.26 0 60.52 0 0 Z " fill="#FDFDFD" transform="translate(270,239)"/>
<path d="M0 0 C11.55 0 23.1 0 35 0 C35 0.33 35 0.66 35 1 C23.45 1 11.9 1 0 1 C0 0.67 0 0.34 0 0 Z " fill="#FDFDFD" transform="translate(500,345)"/>
</svg>
