<?xml version="1.0" encoding="UTF-8"?>
<!-- Generator: visioncortex VTracer 0.6.2 -->
<svg version="1.1" xmlns="http://www.w3.org/2000/svg" width="1280" height="1280">
<path d="M0 0 C1.39851396 -0.0006772 2.79702781 -0.00165064 4.19554138 -0.00289917 C7.09708805 -0.00435615 9.99860351 -0.00228683 12.90014648 0.00244141 C16.57288119 0.00814283 20.24554283 0.00484413 23.91827488 -0.00113106 C26.79689561 -0.00478682 29.67549972 -0.00357546 32.55412102 -0.00100327 C34.55167057 -0.00003553 36.54922084 -0.00300967 38.54676819 -0.00613403 C63.67057505 0.0572938 63.67057505 0.0572938 65.74609375 2.1328125 C68.08330236 2.31768935 70.40498451 2.45020791 72.74609375 2.5546875 C81.49127435 3.0266223 90.0854071 4.11302972 98.74609375 5.3828125 C99.87365082 5.5450531 99.87365082 5.5450531 101.02398682 5.71057129 C113.63409477 7.5315905 126.1046286 9.80770756 138.53076172 12.63964844 C140.14784421 12.99963374 141.77065955 13.33413897 143.39624023 13.65356445 C145.67957863 14.11924687 147.74501618 14.77782569 149.93359375 15.5703125 C154.0458043 16.97982227 158.13074124 17.86983699 162.3984375 18.66796875 C165.57629968 19.29719604 168.64618415 20.19699073 171.74609375 21.1328125 C173.38578125 21.596875 173.38578125 21.596875 175.05859375 22.0703125 C176.27546875 22.4209375 177.49234375 22.7715625 178.74609375 23.1328125 C179.50921875 23.34808594 180.27234375 23.56335938 181.05859375 23.78515625 C185.37220156 25.03205851 189.53609501 26.40797969 193.68359375 28.1328125 C197.1084795 29.54651145 200.46997545 30.64975389 204.05859375 31.5703125 C211.4580975 33.49376305 218.77916146 36.06978824 225.5703125 39.6015625 C228.80781815 41.16257384 232.00895289 42.24285791 235.42138672 43.34228516 C239.15129507 44.61065769 242.72031268 46.20023785 246.30859375 47.8203125 C247.08887939 48.17061523 247.86916504 48.52091797 248.6730957 48.88183594 C255.70455531 52.06583934 262.62244224 55.44480675 269.48632812 58.97412109 C271.08140597 59.79199485 272.67934706 60.6042961 274.27929688 61.41259766 C310.43548374 79.68023003 344.81809149 101.80700061 376.00195312 127.69287109 C378.45776112 129.72035648 380.94932243 131.70286946 383.43359375 133.6953125 C388.58527267 137.91102573 393.45683515 142.39642058 398.3125 146.9453125 C400.94578852 149.41131349 403.63334938 151.80896153 406.33203125 154.203125 C412.10901525 159.39301492 417.62504536 164.82566684 423.11450195 170.31591797 C424.80466721 172.00389105 426.50270209 173.68366974 428.20117188 175.36328125 C434.12433053 181.2566192 439.65527263 187.2401704 444.86206055 193.78320312 C447.15777946 196.64623264 449.59329733 199.28594308 452.12109375 201.9453125 C458.09120453 208.35594445 463.43985844 215.16973569 468.74609375 222.1328125 C469.5971167 223.23906982 469.5971167 223.23906982 470.46533203 224.36767578 C480.1222986 236.93289794 489.16782285 249.80853083 497.74609375 263.1328125 C498.27912109 263.95797363 498.81214844 264.78313477 499.36132812 265.63330078 C546.62684655 339.22042249 576.31869125 424.23625234 586.74609375 530.1328125 C586.84325684 531.32648437 586.94041992 532.52015625 587.04052734 533.75 C587.92983516 546.07577435 587.98948881 558.40410658 587.99609375 570.7578125 C587.99710587 572.47073486 587.99710587 572.47073486 587.99813843 574.21826172 C587.97878826 594.98479416 587.08512516 615.49871066 584.74609375 636.1328125 C584.66123718 636.88419495 584.57638062 637.63557739 584.48895264 638.409729 C581.91025997 660.93063093 578.0028553 683.08547487 572.74609375 705.1328125 C572.58451782 705.81305481 572.42294189 706.49329712 572.25646973 707.19415283 C564.57562502 739.36350527 554.23167368 770.91768046 540.74609375 801.1328125 C540.31619141 802.10782715 539.88628906 803.0828418 539.44335938 804.08740234 C518.34632077 851.80212798 490.74114266 896.50241972 456.89086914 936.234375 C453.87050234 939.78268997 450.91878804 943.37809506 447.99609375 947.0078125 C445.00828956 950.68142939 441.92396603 954.08851631 438.51098633 957.36694336 C436.82504613 959.05381643 435.28972452 960.79700181 433.75 962.6171875 C429.33620003 967.69457224 424.59505101 972.4341893 419.83081055 977.1784668 C418.31117707 978.6927383 416.79696858 980.2122868 415.28320312 981.73242188 C409.94240443 987.07687444 404.49490016 992.22574469 398.74609375 997.1328125 C397.13841002 998.58726767 395.5336966 1000.04502145 393.93359375 1001.5078125 C389.67134659 1005.34965592 385.30365806 1009.02400003 380.83984375 1012.62890625 C378.57627539 1014.46091044 376.3285213 1016.30608107 374.08984375 1018.16796875 C364.63574062 1025.99910569 354.89412273 1033.22844575 344.74609375 1040.1328125 C343.83263184 1040.75591309 342.91916992 1041.37901367 341.97802734 1042.02099609 C321.53376034 1055.92336939 300.6081928 1068.58875236 278.74609375 1080.1328125 C277.8835498 1080.59010742 277.02100586 1081.04740234 276.13232422 1081.51855469 C218.74277944 1111.71900087 155.24063691 1129.63526466 91.18359375 1138.3828125 C90.08128418 1138.53395508 88.97897461 1138.68509766 87.84326172 1138.84082031 C84.14862036 1139.31779135 80.45023162 1139.73837142 76.74609375 1140.1328125 C75.95180969 1140.22001556 75.15752563 1140.30721863 74.33917236 1140.39706421 C57.01974703 1142.24249689 39.75422521 1142.47685873 22.35888672 1142.44848633 C19.2978641 1142.44387306 16.23724063 1142.45072971 13.17626953 1142.46899414 C-8.15143724 1142.59486392 -29.06358143 1141.61805881 -50.25390625 1139.1328125 C-51.6267276 1138.97224869 -51.6267276 1138.97224869 -53.02728271 1138.80844116 C-57.84581358 1138.22939772 -62.64389401 1137.55592273 -67.44140625 1136.8203125 C-68.47089386 1136.66548904 -68.47089386 1136.66548904 -69.5211792 1136.50753784 C-84.2172387 1134.2897886 -98.76172716 1131.43174078 -113.25390625 1128.1328125 C-114.2809668 1127.89981445 -115.30802734 1127.66681641 -116.36621094 1127.42675781 C-206.30402089 1106.70335604 -288.64391015 1062.29085643 -358.31640625 1002.2578125 C-359.20900146 1001.49114258 -359.20900146 1001.49114258 -360.11962891 1000.70898438 C-363.08475912 998.13090105 -365.9295411 995.4867854 -368.6875 992.6875 C-371.06088583 990.27954071 -373.49590925 988.01703211 -376.0625 985.81640625 C-381.04777455 981.51088728 -385.67110209 976.86162029 -390.31640625 972.1953125 C-391.17556641 971.34001953 -392.03472656 970.48472656 -392.91992188 969.60351562 C-397.3463252 965.17034926 -401.62780284 960.67450969 -405.7097168 955.92211914 C-407.95085612 953.32523217 -410.29088325 950.83035221 -412.62890625 948.3203125 C-417.74395852 942.7761598 -422.54018163 937.02302046 -427.25390625 931.1328125 C-428.17631 930.00197293 -429.09952821 928.87179735 -430.0234375 927.7421875 C-441.62675876 913.48975889 -452.2573985 898.54934354 -462.25390625 883.1328125 C-462.93138916 882.09664795 -462.93138916 882.09664795 -463.62255859 881.03955078 C-480.72231076 854.81836757 -496.07546944 826.98807856 -508.25390625 798.1328125 C-508.87724854 796.66666504 -508.87724854 796.66666504 -509.51318359 795.17089844 C-510.87068051 791.97337034 -512.22042116 788.77270249 -513.56640625 785.5703125 C-513.98744629 784.5707251 -514.40848633 783.5711377 -514.84228516 782.54125977 C-516.96754911 777.43608987 -518.92962535 772.33321865 -520.62573242 767.06958008 C-521.42585911 764.60265236 -522.33585589 762.18299554 -523.25390625 759.7578125 C-524.95809214 755.12475961 -526.28924419 750.46514538 -527.53515625 745.69140625 C-528.18067864 743.39348688 -528.93836575 741.22486477 -529.81640625 739.0078125 C-531.19324402 735.51221402 -531.96749893 732.03356092 -532.71875 728.359375 C-533.25190582 726.14113547 -533.97056204 724.12446613 -534.81640625 722.0078125 C-536.24457846 718.4159594 -536.74720527 714.96926279 -537.25390625 711.1328125 C-537.58390625 710.3078125 -537.91390625 709.4828125 -538.25390625 708.6328125 C-539.5040478 705.50745862 -539.77886109 702.45812864 -540.25390625 699.1328125 C-540.58390625 698.3696875 -540.91390625 697.6065625 -541.25390625 696.8203125 C-542.78263731 692.71184778 -542.93299951 688.48194331 -543.25390625 684.1328125 C-543.58390625 684.1328125 -543.91390625 684.1328125 -544.25390625 684.1328125 C-545.44479611 678.75254225 -546.54585815 673.67989866 -546.25390625 668.1328125 C-546.58390625 668.1328125 -546.91390625 668.1328125 -547.25390625 668.1328125 C-547.87200221 664.25991481 -548.47021533 660.38413744 -549.06640625 656.5078125 C-549.31487305 654.95320312 -549.31487305 654.95320312 -549.56835938 653.3671875 C-550.18850143 649.29531139 -550.73687031 645.21895171 -551.25390625 641.1328125 C-551.38030487 640.14211761 -551.50670349 639.15142273 -551.63693237 638.13070679 C-554.22903122 617.14035166 -554.78171885 596.37065166 -554.700737 575.2426796 C-554.6912606 572.65554841 -554.68641869 570.06843737 -554.68218994 567.48129272 C-554.62942938 543.57255079 -554.31399946 519.86061546 -550.57678223 496.19348145 C-550.24006168 494.04445329 -549.92082372 491.89332968 -549.60449219 489.74121094 C-541.50346233 435.13374541 -525.42469066 382.22283455 -502.25390625 332.1328125 C-501.54282715 330.5852124 -501.54282715 330.5852124 -500.81738281 329.00634766 C-493.70527399 313.60152944 -485.84991828 298.75824246 -477.25390625 284.1328125 C-476.72200684 283.22563477 -476.19010742 282.31845703 -475.64208984 281.38378906 C-469.79346672 271.44095073 -463.82530503 261.61848379 -457.25390625 252.1328125 C-456.75133301 251.40094727 -456.24875977 250.66908203 -455.73095703 249.91503906 C-448.24792697 239.02631249 -440.5555052 228.41035114 -432.25390625 218.1328125 C-431.57070313 217.26785156 -430.8875 216.40289062 -430.18359375 215.51171875 C-421.74049265 204.82965764 -412.86713136 194.56844428 -403.60253906 184.59472656 C-402.29530651 183.17769027 -401.00476886 181.74530913 -399.71484375 180.3125 C-394.158305 174.1516247 -388.42264223 168.19753173 -382.56640625 162.3203125 C-381.86563965 161.61495361 -381.16487305 160.90959473 -380.44287109 160.18286133 C-376.43593275 156.18770532 -372.32734692 152.37109993 -368.04223633 148.67602539 C-365.8038111 146.74440957 -363.62350459 144.75265547 -361.44140625 142.7578125 C-356.19209648 138.02705157 -350.7576668 133.56284198 -345.25390625 129.1328125 C-344.12076928 128.20742842 -342.98797176 127.28162857 -341.85546875 126.35546875 C-326.66988006 113.99687497 -310.69645319 102.7519574 -294.25390625 92.1328125 C-293.47273438 91.62814453 -292.6915625 91.12347656 -291.88671875 90.60351562 C-258.60953178 69.25334631 -223.17897955 51.25205077 -186.25390625 37.1328125 C-185.22668457 36.73900391 -184.19946289 36.34519531 -183.14111328 35.93945312 C-140.11080832 19.60038996 -95.34104733 9.20051795 -49.75390625 3.3203125 C-48.94350891 3.21499207 -48.13311157 3.10967163 -47.29815674 3.00115967 C-44.94049872 2.69796618 -42.58191468 2.40373735 -40.22265625 2.11328125 C-39.55378387 2.02814774 -38.8849115 1.94301422 -38.19577026 1.8553009 C-25.50528116 0.33979481 -12.76939435 -0.02000388 0 0 Z M-15.25390625 1.1328125 C-15.25390625 1.4628125 -15.25390625 1.7928125 -15.25390625 2.1328125 C-12.28390625 2.1328125 -9.31390625 2.1328125 -6.25390625 2.1328125 C-6.25390625 1.8028125 -6.25390625 1.4728125 -6.25390625 1.1328125 C-9.22390625 1.1328125 -12.19390625 1.1328125 -15.25390625 1.1328125 Z M40.74609375 1.1328125 C40.74609375 1.4628125 40.74609375 1.7928125 40.74609375 2.1328125 C43.71609375 2.1328125 46.68609375 2.1328125 49.74609375 2.1328125 C49.74609375 1.8028125 49.74609375 1.4728125 49.74609375 1.1328125 C46.77609375 1.1328125 43.80609375 1.1328125 40.74609375 1.1328125 Z M-31.25390625 2.1328125 C-31.25390625 2.4628125 -31.25390625 2.7928125 -31.25390625 3.1328125 C-29.60390625 3.1328125 -27.95390625 3.1328125 -26.25390625 3.1328125 C-26.25390625 2.8028125 -26.25390625 2.4728125 -26.25390625 2.1328125 C-27.90390625 2.1328125 -29.55390625 2.1328125 -31.25390625 2.1328125 Z M-39.25390625 3.1328125 C-35.25390625 4.1328125 -35.25390625 4.1328125 -35.25390625 4.1328125 Z M69.74609375 3.1328125 C73.74609375 4.1328125 73.74609375 4.1328125 73.74609375 4.1328125 Z M-543.25390625 459.1328125 C-542.25390625 461.1328125 -542.25390625 461.1328125 -542.25390625 461.1328125 Z M-545.25390625 470.1328125 C-544.25390625 472.1328125 -544.25390625 472.1328125 -544.25390625 472.1328125 Z M-546.25390625 475.1328125 C-545.25390625 477.1328125 -545.25390625 477.1328125 -545.25390625 477.1328125 Z M-547.25390625 481.1328125 C-546.25390625 483.1328125 -546.25390625 483.1328125 -546.25390625 483.1328125 Z M-549.25390625 494.1328125 C-548.25390625 497.1328125 -548.25390625 497.1328125 -548.25390625 497.1328125 Z M-550.25390625 503.1328125 C-549.25390625 505.1328125 -549.25390625 505.1328125 -549.25390625 505.1328125 Z M-551.25390625 511.1328125 C-550.25390625 514.1328125 -550.25390625 514.1328125 -550.25390625 514.1328125 Z M-552.25390625 521.1328125 C-551.25390625 525.1328125 -551.25390625 525.1328125 -551.25390625 525.1328125 Z M-553.25390625 533.1328125 C-553.25390625 535.4428125 -553.25390625 537.7528125 -553.25390625 540.1328125 C-552.92390625 540.1328125 -552.59390625 540.1328125 -552.25390625 540.1328125 C-552.25390625 537.8228125 -552.25390625 535.5128125 -552.25390625 533.1328125 C-552.58390625 533.1328125 -552.91390625 533.1328125 -553.25390625 533.1328125 Z M-553.25390625 604.1328125 C-553.25390625 606.4428125 -553.25390625 608.7528125 -553.25390625 611.1328125 C-552.92390625 611.1328125 -552.59390625 611.1328125 -552.25390625 611.1328125 C-552.25390625 608.8228125 -552.25390625 606.5128125 -552.25390625 604.1328125 C-552.58390625 604.1328125 -552.91390625 604.1328125 -553.25390625 604.1328125 Z M-552.25390625 619.1328125 C-551.25390625 623.1328125 -551.25390625 623.1328125 -551.25390625 623.1328125 Z M-551.25390625 630.1328125 C-550.25390625 634.1328125 -550.25390625 634.1328125 -550.25390625 634.1328125 Z M-550.25390625 639.1328125 C-549.25390625 641.1328125 -549.25390625 641.1328125 -549.25390625 641.1328125 Z M-549.25390625 647.1328125 C-548.25390625 650.1328125 -548.25390625 650.1328125 -548.25390625 650.1328125 Z M-547.25390625 661.1328125 C-546.25390625 663.1328125 -546.25390625 663.1328125 -546.25390625 663.1328125 Z M-545.25390625 672.1328125 C-544.25390625 674.1328125 -544.25390625 674.1328125 -544.25390625 674.1328125 Z " fill="#FCFDFF" transform="translate(626.25390625,67.8671875)"/>
<path d="M0 0 C0.93339927 0.00054477 1.86679853 0.00108953 2.82848263 0.00165081 C3.89838436 -0.00254368 4.96828609 -0.00673817 6.07060909 -0.01105976 C7.24939129 -0.00544025 8.42817348 0.00017925 9.64267635 0.00596905 C10.88006557 0.0040707 12.1174548 0.00217236 13.39234066 0.00021648 C16.79103147 -0.00285958 20.18948041 0.00303188 23.58814263 0.01316953 C27.13911022 0.02193725 30.69007356 0.02019284 34.24104977 0.01980877 C40.20388646 0.02074589 46.16667232 0.02943692 52.12949276 0.04307842 C59.03231605 0.05881165 65.93508367 0.06407631 72.83792359 0.06334287 C79.46834912 0.06273342 86.09875645 0.06783081 92.72917652 0.07613468 C95.55572241 0.07967342 98.38226186 0.08149877 101.20880985 0.08202839 C105.1503272 0.08321553 109.09179782 0.09291181 113.03330135 0.1036253 C114.21410778 0.10317211 115.39491421 0.10271893 116.61150265 0.10225201 C118.21212551 0.10864948 118.21212551 0.10864948 119.84508419 0.1151762 C120.77810643 0.11685205 121.71112867 0.11852789 122.67242432 0.12025452 C124.77329159 0.24888897 124.77329159 0.24888897 125.77329159 1.24888897 C125.8836989 4.206862 125.92826552 7.14198534 125.93150997 10.10083294 C125.93644795 11.04090441 125.94138593 11.98097587 125.94647354 12.94953436 C125.96193002 16.12491955 125.97023109 19.30028442 125.97861385 22.47569561 C125.98818598 24.741826 125.99819566 27.00795457 126.00861263 29.27408123 C126.03573987 35.44736733 126.05670696 41.62066113 126.07661462 47.79397416 C126.09842612 54.23757326 126.12583838 60.6811484 126.15267086 67.1247282 C126.19697557 77.94678532 126.23779968 88.7688497 126.27597713 99.59092999 C126.31531656 110.73970277 126.35673903 121.88846458 126.40097713 133.03721905 C126.40506354 134.06733844 126.40506354 134.06733844 126.4092325 135.11826832 C126.42291173 138.56333421 126.43663205 142.00839994 126.45037282 145.45346558 C126.56438552 174.05191709 126.67111044 202.65039288 126.77329159 231.24888897 C127.43329159 231.24888897 128.09329159 231.24888897 128.77329159 231.24888897 C130.14820457 229.74101736 131.44693621 228.16349136 132.71079159 226.56138897 C133.51387753 225.55720928 134.31696346 224.55302959 135.14438534 223.51842022 C135.57219296 222.98297588 136.00000057 222.44753155 136.44077206 221.89586163 C138.67062 219.13980552 140.97343862 216.44654563 143.27329159 213.74888897 C146.6283941 209.80293622 149.94552636 205.83244796 153.21079159 201.81138897 C157.62242214 196.39318318 162.16652801 191.09618047 166.72251034 185.79967022 C172.9675648 178.53857894 179.16960309 171.24335468 185.21079159 163.81138897 C189.16837347 158.94759872 193.23871605 154.19007665 197.3316412 149.44053936 C200.36274448 145.91589978 203.34314475 142.35849014 206.27329159 138.74888897 C210.20707729 133.90292108 214.25776918 129.16790369 218.33188534 124.44029522 C221.36287443 120.91570994 224.3432174 117.35840065 227.27329159 113.74888897 C231.20707729 108.90292108 235.25776918 104.16790369 239.33188534 99.44029522 C242.36287443 95.91570994 245.3432174 92.35840065 248.27329159 88.74888897 C252.20707729 83.90292108 256.25776918 79.16790369 260.33188534 74.44029522 C263.36287443 70.91570994 266.3432174 67.35840065 269.27329159 63.74888897 C273.20707729 58.90292108 277.25776918 54.16790369 281.33188534 49.44029522 C284.36287443 45.91570994 287.3432174 42.35840065 290.27329159 38.74888897 C294.2028191 33.90816667 298.24888735 29.17807524 302.31870174 24.45567608 C306.22111329 19.91785746 310.02256799 15.30887513 313.80063534 10.66685772 C321.28488777 1.49309088 321.28488777 1.49309088 323.77329159 0.24888897 C325.79364328 0.15055094 327.8173075 0.11817627 329.84004879 0.1151762 C331.13424236 0.11091122 332.42843594 0.10664623 333.7618475 0.10225201 C335.20438293 0.10260155 336.64691833 0.1030631 338.0894537 0.1036253 C339.60210408 0.10063457 341.1147537 0.09723224 342.62740231 0.09344769 C346.74306059 0.08459495 350.85869811 0.08226905 354.974365 0.0816319 C358.40642313 0.08068381 361.8384764 0.0770067 365.27053267 0.0734598 C373.36544895 0.0653105 381.4603541 0.06287601 389.55527401 0.06358624 C397.91451889 0.06418725 406.27369928 0.05363183 414.63292783 0.03784257 C421.80238555 0.02478157 428.97182215 0.01940173 436.14129168 0.02004164 C440.42657076 0.02029705 444.71179255 0.01742274 448.99705982 0.00686359 C453.02632037 -0.00279329 457.05546858 -0.00291323 461.08473301 0.00438023 C462.56541641 0.00542906 464.04610671 0.00304554 465.52677822 -0.00298023 C467.54435503 -0.01066062 469.56196986 -0.00487396 471.57955074 0.00165081 C472.70983668 0.00110604 473.84012262 0.00056128 475.00465965 0 C477.77329159 0.24888897 477.77329159 0.24888897 480.77329159 2.24888897 C480.13391659 2.86763897 479.49454159 3.48638897 478.83579159 4.12388897 C472.11147376 10.86714853 466.00765673 18.13279872 460.02329159 25.53013897 C457.8382759 28.17036626 455.58157768 30.71618617 453.27329159 33.24888897 C449.42770418 37.47305752 445.80598188 41.8384197 442.21079159 46.27623272 C439.50438087 49.57683938 436.74287854 52.82458088 433.96079159 56.06138897 C433.45660702 56.64799297 432.95242245 57.23459698 432.43295956 57.83897686 C430.36071903 60.24740709 428.28619715 62.65386719 426.21176815 65.06041241 C421.19167661 70.8872481 416.17955509 76.71123545 411.33579159 82.68638897 C406.18142367 89.03165778 400.79966393 95.17398345 395.43295956 101.339221 C389.31250699 108.38161288 383.21298822 115.43891698 377.33579159 122.68638897 C372.18142367 129.03165778 366.79966393 135.17398345 361.43295956 141.339221 C355.31250699 148.38161288 349.21298822 155.43891698 343.33579159 162.68638897 C338.18142367 169.03165778 332.79966393 175.17398345 327.43295956 181.339221 C321.31250699 188.38161288 315.21298822 195.43891698 309.33579159 202.68638897 C304.18142367 209.03165778 298.79966393 215.17398345 293.43295956 221.339221 C287.31250699 228.38161288 281.21298822 235.43891698 275.33579159 242.68638897 C270.1545002 249.0684541 264.74348085 255.24684293 259.34213924 261.44224834 C256.80416071 264.3649127 254.2877895 267.30602014 251.77329159 270.24888897 C253.02198357 274.82742623 255.55117902 277.20954741 258.86704159 280.38951397 C263.03089472 284.45097727 266.69880232 288.98292093 270.46079159 293.41295147 C276.00575704 299.93049209 281.6417244 306.31893109 287.48740292 312.56846905 C290.51166179 315.82220561 293.37329657 319.15129816 296.14829159 322.62388897 C300.38243711 327.90502321 304.97067723 332.78606164 309.61826229 337.69932842 C313.77500536 342.1166049 317.64003954 346.68773687 321.42563534 351.42857647 C325.34586509 356.13807044 329.57448204 360.55859406 333.76547909 365.02623272 C336.61554729 368.06683228 339.37817969 371.17237321 342.10141659 374.32701397 C344.13087232 376.65993971 346.20093859 378.95400142 348.27329159 381.24888897 C353.07236951 386.5722359 357.81407109 391.93752236 362.45297909 397.40123272 C367.51422927 403.35401969 372.62289649 409.22918402 377.96079159 414.93638897 C381.52658271 418.74888441 384.94429945 422.60923455 388.21079159 426.68638897 C392.79641454 432.39962412 397.77074701 437.70090834 402.77719784 443.04185772 C407.14319452 447.70080216 411.30504992 452.519597 415.43735409 457.38560772 C421.03904963 463.97008921 426.72565289 470.44118899 432.61704159 476.76842022 C435.83619114 480.22602529 438.98573402 483.72917948 442.07407284 487.30357647 C444.06735587 489.58554187 446.10822186 491.82117471 448.14829159 494.06138897 C451.22075932 497.45972449 454.15771781 500.9247942 457.02329159 504.49888897 C461.68388024 510.26330125 466.71108439 515.6374085 471.77719784 521.04185772 C476.14319452 525.70080216 480.30504992 530.519597 484.43735409 535.38560772 C490.50320758 542.51568107 496.70039851 549.48276638 503.07407284 556.33873272 C505.32904951 558.76993043 507.56888562 561.2093699 509.77329159 563.68638897 C510.26829159 564.24197491 510.76329159 564.79756084 511.27329159 565.36998272 C513.28023462 567.88388792 514.99972683 570.56696286 516.77329159 573.24888897 C493.57263855 573.28181652 470.37230251 573.27482527 447.17168331 573.22042274 C436.3989869 573.19609096 425.6265717 573.18477999 414.85385799 573.20421124 C405.46338978 573.22111613 396.07331491 573.2134993 386.68289852 573.17654139 C381.71144373 573.15782878 376.74065408 573.1513247 371.76920223 573.17419529 C367.08703088 573.1953474 362.40607648 573.18364099 357.72401142 573.14704418 C356.00839679 573.13936882 354.2926803 573.14356137 352.57713413 573.16070271 C338.00833155 573.29508536 338.00833155 573.29508536 332.83725643 568.86023235 C331.14447689 567.00951767 331.14447689 567.00951767 329.77329159 565.24888897 C328.99340878 564.36845928 328.21352596 563.48802959 327.41001034 562.58092022 C326.44514706 561.33375225 326.44514706 561.33375225 325.46079159 560.06138897 C322.20619941 555.96654064 318.83819278 552.06983962 315.27329159 548.24888897 C310.98307369 543.63950261 306.969135 538.87099745 303.01938534 533.96373272 C300.68498569 531.14215402 298.2533856 528.44298185 295.77329159 525.74888897 C292.49910735 522.19218653 289.36686726 518.57727086 286.33579159 514.81138897 C282.67758144 510.27572454 278.82586193 505.99187727 274.85947323 501.72960186 C271.078386 497.64227891 267.57639193 493.36845653 264.08579159 489.03013897 C261.57358148 486.00869709 258.94928332 483.12447124 256.27329159 480.24888897 C252.00411007 475.66128784 248.01570642 470.91446169 244.08579159 466.03013897 C241.57358025 463.00869561 238.94926702 460.12448819 236.27329159 457.24888897 C231.98371399 452.63887258 227.96918262 447.87105661 224.01938534 442.96373272 C221.68498569 440.14215402 219.2533856 437.44298185 216.77329159 434.74888897 C213.49910735 431.19218653 210.36686726 427.57727086 207.33579159 423.81138897 C203.67758144 419.27572454 199.82586193 414.99187727 195.85947323 410.72960186 C192.078386 406.64227891 188.57639193 402.36845653 185.08579159 398.03013897 C182.57358148 395.00869709 179.94928332 392.12447124 177.27329159 389.24888897 C173.00411007 384.66128784 169.01570642 379.91446169 165.08579159 375.03013897 C162.57358148 372.00869709 159.94928332 369.12447124 157.27329159 366.24888897 C153.01105506 361.66875082 149.02812412 356.93057266 145.10532284 352.05357647 C141.63914827 347.88487741 137.95351247 343.93680223 134.25376034 339.97545147 C132.6312282 338.19194371 131.066993 336.35315683 129.57407284 334.45982647 C127.96301447 332.17246799 127.96301447 332.17246799 125.77329159 331.24888897 C125.77329159 410.77888897 125.77329159 490.30888897 125.77329159 572.24888897 C104.50891659 572.26951397 83.24454159 572.29013897 61.33579159 572.31138897 C54.61018856 572.32049297 47.88458553 572.32959698 40.95517635 572.33897686 C32.77121639 572.34349346 32.77121639 572.34349346 28.94551754 572.3443327 C26.26137639 572.34587289 23.57728149 572.34903019 20.89314938 572.35446453 C16.83829515 572.36256608 12.78347614 572.36279656 8.72861385 572.36241436 C7.52369321 572.36601247 6.31877256 572.36961058 5.07733917 572.37331772 C3.99280929 572.37194022 2.9082794 572.37056273 1.79088497 572.36914349 C0.84051641 572.37006528 -0.10985216 572.37098707 -1.08901978 572.3719368 C-3.22670841 572.24888897 -3.22670841 572.24888897 -4.22670841 571.24888897 C-4.32765388 568.2401978 -4.3621419 565.25436335 -4.35534286 562.24514389 C-4.3570959 561.28390461 -4.35884894 560.32266533 -4.3606551 559.33229759 C-4.36535622 556.06840189 -4.36283913 552.80454994 -4.36042118 549.54065228 C-4.36228709 547.19420282 -4.3645869 544.84775368 -4.3672865 542.50130504 C-4.37279145 536.70129497 -4.3735828 530.90129726 -4.37242565 525.101285 C-4.37129284 518.15846666 -4.37592221 511.21565527 -4.38070502 504.27283892 C-4.39039511 489.87609249 -4.39318987 475.47934961 -4.39376207 461.0826003 C-4.39422093 449.96850854 -4.39627566 438.85441819 -4.3994627 427.74032688 C-4.40036019 424.54568114 -4.40125 421.3510354 -4.40213758 418.15638965 C-4.40235863 417.36228078 -4.40257967 416.5681719 -4.40280742 415.74999912 C-4.40896487 393.4017393 -4.41290765 371.05347997 -4.41246414 348.70521927 C-4.41244077 347.44037272 -4.41244077 347.44037272 -4.41241693 346.14997371 C-4.41233382 341.87574392 -4.41223478 337.60151413 -4.41213223 333.32728434 C-4.41211228 332.47834641 -4.41209234 331.62940847 -4.41207179 330.75474515 C-4.41203135 329.03798476 -4.41198955 327.32122437 -4.41194639 325.60446397 C-4.41133344 298.88559174 -4.41884265 272.16673219 -4.43251896 245.44786358 C-4.44786345 215.45729004 -4.45648617 185.46672483 -4.45555574 155.47614712 C-4.4554811 152.28118702 -4.4554324 149.08622692 -4.45540142 145.89126682 C-4.45538977 145.10453555 -4.45537811 144.31780427 -4.4553661 143.50723265 C-4.45533527 130.82010478 -4.46173426 118.13298787 -4.47033369 105.44586327 C-4.47879067 92.70582633 -4.47981551 79.96580551 -4.47322436 67.22576732 C-4.46984336 60.31731514 -4.46969864 53.40889941 -4.47857761 46.50045109 C-4.48637489 40.18610197 -4.48508142 33.87182492 -4.47629348 27.55747771 C-4.47474341 25.26340881 -4.47663046 22.96933471 -4.48215356 20.67527194 C-4.48912514 17.57625019 -4.48399052 14.47748756 -4.47559738 11.37847519 C-4.48304965 10.01747617 -4.48304965 10.01747617 -4.49065247 8.62898222 C-4.44352807 0.49667263 -4.44352807 0.49667263 0 0 Z " fill="#2A57D3" transform="translate(412.2267084121704,363.7511110305786)"/>
<path d="M0 0 C0.33 0 0.66 0 1 0 C1 10.89 1 21.78 1 33 C0.67 33 0.34 33 0 33 C0 22.11 0 11.22 0 0 Z " fill="#FCFDFF" transform="translate(71,623)"/>
</svg>
